<?xml version="1.0" encoding="UTF-8" standalone="no"?>
<!DOCTYPE svg PUBLIC "-//W3C//DTD SVG 1.1//EN" "http://www.w3.org/Graphics/SVG/1.1/DTD/svg11.dtd">
<svg width="100%" height="100%" viewBox="0 0 5594 5591" version="1.1" xmlns="http://www.w3.org/2000/svg" xmlns:xlink="http://www.w3.org/1999/xlink" xml:space="preserve" xmlns:serif="http://www.serif.com/" style="fill-rule:evenodd;clip-rule:evenodd;stroke-linejoin:round;stroke-miterlimit:2;">
    <g transform="matrix(1,0,0,1,-1672.35,-1270.8)">
        <g transform="matrix(4.16667,0,0,4.16667,0,0)">
            <g transform="matrix(1029.79,-1029.79,-1029.79,-1029.79,499.21,1551.17)">
                <path d="M0.878,0.317L0.354,0.317L0.354,0.317C0.354,0.317 0.353,0.317 0.353,0.317C0.179,0.317 0.037,0.176 0.037,0.001C0.037,-0.173 0.179,-0.315 0.353,-0.315C0.353,-0.315 0.354,-0.315 0.354,-0.315L0.354,-0.315L0.879,-0.315C0.898,-0.315 0.914,-0.299 0.914,-0.28C0.914,-0.261 0.898,-0.245 0.879,-0.245L0.652,-0.245C0.633,-0.245 0.617,-0.229 0.617,-0.21C0.617,-0.191 0.633,-0.175 0.652,-0.175L0.845,-0.175C0.865,-0.175 0.88,-0.159 0.88,-0.14L0.88,-0.139C0.88,-0.119 0.865,-0.104 0.845,-0.104L0.48,-0.104C0.461,-0.104 0.445,-0.088 0.445,-0.069C0.445,-0.049 0.461,-0.034 0.48,-0.034L0.95,-0.034C0.97,-0.034 0.985,-0.018 0.985,0.001C0.985,0.021 0.97,0.037 0.95,0.037L0.564,0.037C0.544,0.037 0.529,0.052 0.529,0.072C0.529,0.091 0.544,0.107 0.564,0.107L0.915,0.107C0.935,0.107 0.95,0.122 0.95,0.142L0.95,0.142C0.95,0.162 0.935,0.177 0.915,0.177L0.652,0.177C0.633,0.177 0.617,0.193 0.617,0.212C0.617,0.232 0.633,0.247 0.652,0.247L0.845,0.247C0.848,0.247 0.85,0.247 0.852,0.247L0.878,0.247C0.898,0.247 0.913,0.262 0.913,0.282L0.913,0.282C0.913,0.292 0.909,0.301 0.903,0.307C0.897,0.313 0.888,0.317 0.878,0.317Z" style="fill:white;fill-rule:nonzero;"/>
            </g>
        </g>
    </g>
</svg>
